<?xml version="1.0"?>
<svg xmlns="http://www.w3.org/2000/svg" xmlns:xlink="http://www.w3.org/1999/xlink" version="1.1" viewBox="0 0 210 210" width="50px" height="50px"><g fill="none" fill-rule="nonzero" stroke="none" stroke-width="1" stroke-linecap="butt" stroke-linejoin="miter" stroke-miterlimit="10" stroke-dasharray="" stroke-dashoffset="0" font-family="none" font-weight="none" font-size="none" text-anchor="none" style="mix-blend-mode: normal"><path d="M0,210v-210h210v210z" fill="none"/><g fill="#ffffff"><g id="surface1"><path d="M151.2,8.4c-1.80469,0 -3.62578,0.06563 -5.38125,0.2625c-0.47578,0.04922 -0.96797,0.19688 -1.44375,0.2625c-1.27969,0.16406 -2.55937,0.39375 -3.80625,0.65625c-0.47578,0.09844 -0.83672,0.14766 -1.3125,0.2625c-1.23047,0.29531 -2.47734,0.65625 -3.675,1.05c-0.39375,0.13125 -0.7875,0.24609 -1.18125,0.39375c-1.26328,0.45938 -2.59219,1.01719 -3.80625,1.575c-0.29531,0.13125 -0.49219,0.2625 -0.7875,0.39375c-1.29609,0.62344 -2.57578,1.24687 -3.80625,1.96875c-0.19687,0.11484 -0.45937,0.27891 -0.65625,0.39375c-1.3125,0.7875 -2.57578,1.59141 -3.80625,2.49375c-0.09844,0.08203 -0.16406,0.18047 -0.2625,0.2625c-1.3125,0.98438 -2.59219,2.05078 -3.80625,3.15c-0.03281,0.03281 -0.09844,-0.03281 -0.13125,0c-1.26328,1.14844 -2.41172,2.41172 -3.54375,3.675c-8.00625,8.925 -12.99375,20.68828 -12.99375,33.6c0,17.42344 8.97422,29.36719 18.50625,42c3.46172,4.59375 7.15313,9.43359 10.63125,14.83125c7.49766,9.41719 14.42109,20.49141 18.24375,35.175c0.59062,2.28047 0.57422,4.06875 1.575,4.85625c0.45938,0.09844 0.90234,0.13125 1.44375,0.13125c0.54141,0 0.98438,-0.04922 1.44375,-0.13125c1.00078,-0.7875 0.98438,-2.57578 1.575,-4.85625c3.82266,-14.68359 10.74609,-25.75781 18.24375,-35.175c3.47813,-5.39766 7.16953,-10.25391 10.63125,-14.83125c0.59063,-0.77109 1.13203,-1.59141 1.70625,-2.3625c0.90234,-1.19766 1.75547,-2.34609 2.625,-3.54375c0.41016,-0.55781 0.77109,-1.14844 1.18125,-1.70625c0.65625,-0.93516 1.32891,-1.82109 1.96875,-2.75625c0.45937,-0.68906 0.86953,-1.41094 1.3125,-2.1c0.55781,-0.85312 1.19766,-1.62422 1.70625,-2.49375c0.45937,-0.77109 0.88594,-1.575 1.3125,-2.3625c0.45937,-0.82031 0.90234,-1.65703 1.3125,-2.49375c0.42656,-0.85313 0.80391,-1.75547 1.18125,-2.625c0.36094,-0.80391 0.73828,-1.67344 1.05,-2.49375c0.37734,-0.96797 0.60703,-1.88672 0.91875,-2.8875c0.24609,-0.7875 0.57422,-1.55859 0.7875,-2.3625c0.29531,-1.18125 0.44297,-2.44453 0.65625,-3.675c0.11484,-0.68906 0.31172,-1.26328 0.39375,-1.96875c0.24609,-1.96875 0.39375,-4.05234 0.39375,-6.16875c0,-27.79219 -22.60781,-50.4 -50.4,-50.4zM26.64375,25.2c-10.04062,0 -18.24375,8.20313 -18.24375,18.24375v139.9125c0,0.95156 0.11484,1.8375 0.2625,2.75625c1.34531,8.71172 8.89219,15.4875 17.98125,15.4875h139.9125c0.95156,0 1.8375,-0.11484 2.75625,-0.2625c8.25234,-1.27969 14.7,-8.08828 15.35625,-16.5375h0.13125v-72.31875c-1.75547,2.41172 -3.52734,4.93828 -5.25,7.6125l-0.525,0.7875c-8.51484,10.69687 -13.68281,20.55703 -16.66875,32.025c-0.13125,0.49219 -0.18047,0.88594 -0.2625,1.3125c-0.32812,1.70625 -0.93516,4.42969 -2.8875,6.69375l17.19375,17.19375v5.25c0,5.39766 -4.44609,9.84375 -9.84375,9.84375h-5.25l-59.0625,-58.93125l15.09375,-15.35625l14.9625,15.09375c-2.46094,-4.34766 -5.38125,-8.67891 -8.925,-13.125l-0.525,-0.7875c-2.44453,-3.78984 -4.92187,-7.10391 -7.35,-10.36875l-83.60625,83.475h-5.25c-5.39766,0 -9.84375,-4.44609 -9.84375,-9.84375v-5.25l85.96875,-86.1c-5.92266,-9.38438 -10.36875,-19.83516 -10.36875,-33.20625c0,-12.48516 3.95391,-24.06797 10.63125,-33.6zM50.925,42c6.66094,0 12.63281,2.54297 17.19375,6.69375l-7.21875,7.21875c-2.70703,-2.31328 -6.13594,-3.675 -9.975,-3.675c-8.54766,0 -15.4875,6.93984 -15.4875,15.4875c0,8.54766 6.93984,15.4875 15.4875,15.4875c7.18594,0 12.09141,-4.29844 13.9125,-10.2375h-13.9125v-9.84375h24.15c2.11641,10.00781 -1.70625,30.1875 -24.15,30.1875c-14.175,0 -25.725,-11.41875 -25.725,-25.59375c0,-14.175 11.55,-25.725 25.725,-25.725zM151.2,46.2c6.95625,0 12.6,5.64375 12.6,12.6c0,6.95625 -5.64375,12.6 -12.6,12.6c-6.95625,0 -12.6,-5.64375 -12.6,-12.6c0,-6.95625 5.64375,-12.6 12.6,-12.6z"/></g></g></g></svg>
